<svg width="122" height="141" viewBox="0 0 122 141" fill="none" xmlns="http://www.w3.org/2000/svg">
<path d="M121.941 35.5L61.2504 0.5L0.559143 35.5V105.5L61.2496 140.5L121.941 105.5L121.941 35.5ZM45.5806 98.0841L30.5468 106.764L15.5126 98.0842V80.7249L30.5465 72.0451L45.5806 80.7249V98.0841ZM30.5468 72.0435L15.5126 63.3638V46.0042L30.5465 37.3244L45.5806 46.0042V63.3638L30.5468 72.0435ZM75.8064 98.0726V115.432L60.7725 124.112L45.7384 115.432V98.0726L60.7326 89.4155L45.7385 80.7586V63.3989L60.7727 54.7192L75.8065 63.3989V80.7586L60.8124 89.4155L75.8064 98.0726ZM60.7725 54.6957L45.7384 46.0159V28.6563L60.7725 19.9766L75.8064 28.6563V46.0159L60.7725 54.6957ZM105.925 98.0844L90.891 106.764L75.8569 98.0842V80.7249L90.8907 72.0451L105.925 80.7249V98.0844ZM90.891 72.0434L75.8569 63.3638V46.0042L90.8907 37.3244L105.925 46.0042V63.3638L90.891 72.0434Z" fill="white"/>
</svg>
